<svg width="30" height="31" viewBox="0 0 30 31" fill="none" xmlns="http://www.w3.org/2000/svg">
<path d="M26.7857 21.9603V17.4708C26.7857 16.8957 26.5599 16.3442 26.1581 15.9376C25.7562 15.5309 25.2112 15.3025 24.6429 15.3025H16.0714V10.9658H18.2143C18.7826 10.9658 19.3276 10.7374 19.7295 10.3308C20.1314 9.92412 20.3571 9.37261 20.3571 8.79753V2.29258C20.3571 1.71751 20.1314 1.16599 19.7295 0.759353C19.3276 0.352714 18.7826 0.124268 18.2143 0.124268H11.7857C11.2174 0.124268 10.6724 0.352714 10.2705 0.759353C9.86863 1.16599 9.64286 1.71751 9.64286 2.29258V8.79753C9.64286 9.37261 9.86863 9.92412 10.2705 10.3308C10.6724 10.7374 11.2174 10.9658 11.7857 10.9658H13.9286V15.3025H5.35715C4.78883 15.3025 4.24378 15.5309 3.84192 15.9376C3.44006 16.3442 3.21429 16.8957 3.21429 17.4708V21.9614C2.2043 22.2253 1.32409 22.8528 0.738651 23.7264C0.153209 24.6 -0.097268 25.6596 0.0341689 26.7067C0.165606 27.7538 0.669933 28.7165 1.45262 29.4142C2.2353 30.112 3.24261 30.4969 4.28572 30.4969C5.32884 30.4969 6.33614 30.112 7.11883 29.4142C7.90151 28.7165 8.40584 27.7538 8.53727 26.7067C8.66871 25.6596 8.41823 24.6 7.83279 23.7264C7.24735 22.8528 6.36714 22.2253 5.35715 21.9614V17.4708H13.9286V21.9614C12.9186 22.2253 12.0384 22.8528 11.4529 23.7264C10.8675 24.6 10.617 25.6596 10.7484 26.7067C10.8799 27.7538 11.3842 28.7165 12.1669 29.4142C12.9496 30.112 13.9569 30.4969 15 30.4969C16.0431 30.4969 17.0504 30.112 17.8331 29.4142C18.6158 28.7165 19.1201 27.7538 19.2516 26.7067C19.383 25.6596 19.1325 24.6 18.5471 23.7264C17.9616 22.8528 17.0814 22.2253 16.0714 21.9614V17.4708H24.6429V21.9603C23.6329 22.2242 22.7526 22.8517 22.1672 23.7253C21.5818 24.5989 21.3313 25.6586 21.4627 26.7057C21.5942 27.7528 22.0985 28.7154 22.8812 29.4131C23.6639 30.1109 24.6712 30.4959 25.7143 30.4959C26.7574 30.4959 27.7647 30.1109 28.5474 29.4131C29.3301 28.7154 29.8344 27.7528 29.9658 26.7057C30.0973 25.6586 29.8468 24.5989 29.2613 23.7253C28.6759 22.8517 27.7957 22.2242 26.7857 21.9603ZM11.7857 2.29258H18.2143L18.2154 8.79753H11.7857V2.29258ZM6.42858 26.1441C6.42858 26.5729 6.3029 26.9921 6.06744 27.3487C5.83198 27.7053 5.49731 27.9832 5.10576 28.1473C4.7142 28.3114 4.28334 28.3544 3.86767 28.2707C3.452 28.187 3.07018 27.9805 2.77049 27.6773C2.47081 27.374 2.26672 26.9877 2.18404 26.5671C2.10136 26.1465 2.14379 25.7105 2.30598 25.3143C2.46817 24.9181 2.74282 24.5794 3.09521 24.3412C3.44761 24.1029 3.8619 23.9757 4.28572 23.9757C4.85404 23.9757 5.39909 24.2042 5.80095 24.6108C6.20281 25.0175 6.42858 25.569 6.42858 26.1441ZM17.1429 26.1441C17.1429 26.5729 17.0172 26.9921 16.7817 27.3487C16.5463 27.7053 16.2116 27.9832 15.82 28.1473C15.4285 28.3114 14.9976 28.3544 14.5819 28.2707C14.1663 28.187 13.7845 27.9805 13.4848 27.6773C13.1851 27.374 12.981 26.9877 12.8983 26.5671C12.8156 26.1465 12.8581 25.7105 13.0203 25.3143C13.1824 24.9181 13.4571 24.5794 13.8095 24.3412C14.1619 24.1029 14.5762 23.9757 15 23.9757C15.5681 23.9766 16.1126 24.2053 16.5143 24.6118C16.916 25.0182 17.142 25.5693 17.1429 26.1441ZM25.7143 28.3124C25.2905 28.3124 24.8762 28.1852 24.5238 27.9469C24.1714 27.7087 23.8967 27.37 23.7345 26.9738C23.5723 26.5776 23.5299 26.1417 23.6126 25.721C23.6953 25.3004 23.8994 24.9141 24.1991 24.6108C24.4987 24.3076 24.8806 24.1011 25.2962 24.0174C25.7119 23.9337 26.1428 23.9767 26.5343 24.1408C26.9259 24.3049 27.2605 24.5828 27.496 24.9394C27.7315 25.296 27.8571 25.7152 27.8571 26.1441C27.8571 26.7191 27.6314 27.2707 27.2295 27.6773C26.8276 28.0839 26.2826 28.3124 25.7143 28.3124Z" fill="white"/>
</svg>
