<svg width="53" height="39" viewBox="0 0 53 39" fill="none" xmlns="http://www.w3.org/2000/svg">
<path fill-rule="evenodd" clip-rule="evenodd" d="M26.1076 25.0333C26.5379 25.0381 26.952 24.9187 27.2588 24.7012C27.5656 24.4837 27.74 24.186 27.7435 23.8735L27.9384 6.63715L31.5382 9.75859C31.8155 9.99922 32.2123 10.1507 32.6413 10.1797C33.0702 10.2087 33.4963 10.1129 33.8256 9.91328C34.155 9.71368 34.3607 9.42666 34.3975 9.11537C34.4343 8.80408 34.2991 8.49401 34.0218 8.25338L27.5937 2.68219C27.4428 2.55114 27.2549 2.44516 27.0428 2.37156C26.8307 2.29795 26.5995 2.25847 26.3652 2.25582C26.1308 2.25317 25.8988 2.28742 25.6851 2.3562C25.4714 2.42499 25.2811 2.52669 25.1273 2.6543L18.5748 8.0787C18.4349 8.19471 18.3279 8.32977 18.2601 8.47618C18.1924 8.62258 18.1651 8.77746 18.1798 8.93197C18.1945 9.08648 18.251 9.23759 18.346 9.37668C18.441 9.51577 18.5726 9.64011 18.7334 9.74261C18.8942 9.8451 19.081 9.92375 19.2832 9.97404C19.4853 10.0243 19.6988 10.0453 19.9115 10.0358C20.1242 10.0262 20.3319 9.9863 20.5227 9.91834C20.7136 9.85039 20.8838 9.7557 21.0238 9.63969L24.6932 6.60202L24.4983 23.8368C24.491 24.4871 25.2119 25.0231 26.1076 25.0333Z" fill="#EFF4F8"/>
<path d="M34.8815 14.529C33.3627 14.5119 32.6034 14.5033 32.053 14.7626C31.8164 14.8742 31.6126 15.0187 31.4532 15.1878C31.0831 15.5811 31.0768 16.1324 31.0644 17.2351L30.9889 23.911C30.9783 24.8484 30.4552 25.7415 29.5349 26.394C28.6145 27.0465 27.3722 27.4049 26.0811 27.3903C24.7901 27.3757 23.5562 26.9893 22.6508 26.3162C21.7455 25.643 21.2428 24.7383 21.2534 23.8009L21.3289 17.125C21.3413 16.0223 21.3476 15.471 20.9864 15.0694C20.8309 14.8968 20.6304 14.7477 20.3964 14.6307C19.852 14.3591 19.0927 14.3505 17.5739 14.3333C11.4557 14.2641 8.39443 14.2295 6.47931 15.5888C4.56205 16.9464 4.53695 19.166 4.4867 23.6097L4.46893 25.1805C4.41866 29.6259 4.39356 31.8454 6.27961 33.2477C8.1635 34.6499 11.2248 34.6845 17.343 34.7537L34.6505 34.9494C40.7688 35.0186 43.83 35.0532 45.7452 33.694C47.6624 32.3348 47.6876 30.1137 47.7378 25.6714L47.7556 24.1006C47.8058 19.6568 47.8309 17.4357 45.9449 16.0351C44.061 14.6329 40.9997 14.5982 34.8815 14.529Z" fill="#EFF4F8"/>
</svg>
