<svg width="45" height="45" viewBox="0 0 45 45" fill="none" xmlns="http://www.w3.org/2000/svg">
<path d="M40.8194 21.2843C39.3741 19.9729 38.25 18.0231 38.25 16.0714C38.25 10.7478 35.2266 6.42857 31.5 6.42857C29.4935 6.42857 26.9249 6.01233 25.7325 4.39865C23.7161 1.66993 20.996 0 18 0C11.7844 0 6.75 7.19196 6.75 16.0714C6.75 16.5681 6.47629 17.0207 6.05562 17.2848C2.49193 19.5224 0 24.6128 0 30.5357C0 38.5212 4.53516 45 10.125 45H36C40.9711 45 45 39.2444 45 32.1429C45 27.5771 43.3318 23.5639 40.8194 21.2843ZM27.6609 25.7143C25.1213 25.7143 23.0625 27.7731 23.0625 30.3127V36.9643C23.0625 37.8482 22.5562 38.5714 21.9375 38.5714H18.5625C17.9438 38.5714 17.4375 37.8482 17.4375 36.9643V30.3127C17.4375 27.7731 15.3787 25.7143 12.8391 25.7143C11.8336 25.7143 11.3344 23.9866 12.0445 22.9721L19.4555 12.385C19.8914 11.7623 20.6086 11.7623 21.0445 12.385L28.4555 22.9721C29.1656 23.9866 28.6594 25.7143 27.6609 25.7143Z" fill="#6A6666"/>
</svg>
